<mxfile host="app.diagrams.net" modified="2021-04-25T08:12:28.079Z" agent="5.0 (Macintosh; Intel Mac OS X 10_15_7) AppleWebKit/537.36 (KHTML, like Gecko) Chrome/90.0.4430.85 Safari/537.36" etag="aVqOA0FDcAtljighJXQm" version="14.6.6" type="github">
  <diagram id="V3EbOqdWZuiMHqJ26SXN" name="第 1 页">
    <mxGraphModel dx="1426" dy="719" grid="1" gridSize="10" guides="1" tooltips="1" connect="1" arrows="1" fold="1" page="1" pageScale="1" pageWidth="1169" pageHeight="1654" math="0" shadow="0">
      <root>
        <mxCell id="0" />
        <mxCell id="1" parent="0" />
        <mxCell id="h345J-r8i5o6uSTDHPps-1" value="业务系统" style="rounded=1;whiteSpace=wrap;html=1;fillColor=#ffe6cc;strokeColor=#d79b00;" vertex="1" parent="1">
          <mxGeometry x="120" y="60" width="120" height="60" as="geometry" />
        </mxCell>
        <mxCell id="h345J-r8i5o6uSTDHPps-5" value="" style="edgeStyle=orthogonalEdgeStyle;shape=flexArrow;rounded=0;orthogonalLoop=1;jettySize=auto;html=1;strokeWidth=1;fillColor=#ffe6cc;strokeColor=#d79b00;" edge="1" parent="1" source="h345J-r8i5o6uSTDHPps-2" target="h345J-r8i5o6uSTDHPps-3">
          <mxGeometry relative="1" as="geometry" />
        </mxCell>
        <mxCell id="h345J-r8i5o6uSTDHPps-2" value="主数据库MySQL&lt;br&gt;" style="shape=cylinder3;whiteSpace=wrap;html=1;boundedLbl=1;backgroundOutline=1;size=15;fillColor=#ffe6cc;strokeColor=#d79b00;" vertex="1" parent="1">
          <mxGeometry x="150" y="190" width="60" height="80" as="geometry" />
        </mxCell>
        <mxCell id="h345J-r8i5o6uSTDHPps-3" value="从数据库MySQL" style="shape=cylinder3;whiteSpace=wrap;html=1;boundedLbl=1;backgroundOutline=1;size=15;fillColor=#ffe6cc;strokeColor=#d79b00;" vertex="1" parent="1">
          <mxGeometry x="150" y="330" width="60" height="80" as="geometry" />
        </mxCell>
        <mxCell id="h345J-r8i5o6uSTDHPps-4" value="" style="shape=flexArrow;endArrow=classic;html=1;strokeWidth=1;fillColor=#ffe6cc;strokeColor=#d79b00;" edge="1" parent="1">
          <mxGeometry width="50" height="50" relative="1" as="geometry">
            <mxPoint x="180" y="120" as="sourcePoint" />
            <mxPoint x="179.5" y="190" as="targetPoint" />
          </mxGeometry>
        </mxCell>
        <mxCell id="h345J-r8i5o6uSTDHPps-14" value="" style="edgeStyle=orthogonalEdgeStyle;shape=flexArrow;rounded=0;orthogonalLoop=1;jettySize=auto;html=1;strokeWidth=2;fillColor=#ffe6cc;strokeColor=#d79b00;" edge="1" parent="1" source="h345J-r8i5o6uSTDHPps-6" target="h345J-r8i5o6uSTDHPps-11">
          <mxGeometry relative="1" as="geometry" />
        </mxCell>
        <mxCell id="h345J-r8i5o6uSTDHPps-6" value="Flink SQL&lt;br&gt;CDC" style="rounded=1;whiteSpace=wrap;html=1;fillColor=#ffe6cc;strokeColor=#d79b00;" vertex="1" parent="1">
          <mxGeometry x="354" y="200" width="116" height="60" as="geometry" />
        </mxCell>
        <mxCell id="h345J-r8i5o6uSTDHPps-8" value="" style="shape=flexArrow;endArrow=classic;html=1;strokeWidth=2;fillColor=#ffe6cc;strokeColor=#d79b00;" edge="1" parent="1">
          <mxGeometry width="50" height="50" relative="1" as="geometry">
            <mxPoint x="220" y="380" as="sourcePoint" />
            <mxPoint x="360" y="270" as="targetPoint" />
          </mxGeometry>
        </mxCell>
        <mxCell id="h345J-r8i5o6uSTDHPps-9" value="binlog" style="text;html=1;align=center;verticalAlign=middle;resizable=0;points=[];autosize=1;strokeColor=none;" vertex="1" parent="1">
          <mxGeometry x="304" y="330" width="50" height="20" as="geometry" />
        </mxCell>
        <mxCell id="h345J-r8i5o6uSTDHPps-17" value="" style="edgeStyle=orthogonalEdgeStyle;shape=flexArrow;rounded=0;orthogonalLoop=1;jettySize=auto;html=1;strokeWidth=2;fillColor=#ffe6cc;strokeColor=#d79b00;" edge="1" parent="1" source="h345J-r8i5o6uSTDHPps-10" target="h345J-r8i5o6uSTDHPps-11">
          <mxGeometry relative="1" as="geometry" />
        </mxCell>
        <mxCell id="h345J-r8i5o6uSTDHPps-22" style="edgeStyle=orthogonalEdgeStyle;shape=flexArrow;rounded=0;orthogonalLoop=1;jettySize=auto;html=1;strokeWidth=2;entryX=1;entryY=0.5;entryDx=0;entryDy=0;fillColor=#ffe6cc;strokeColor=#d79b00;" edge="1" parent="1" source="h345J-r8i5o6uSTDHPps-10" target="h345J-r8i5o6uSTDHPps-12">
          <mxGeometry relative="1" as="geometry">
            <mxPoint x="740" y="340" as="targetPoint" />
            <Array as="points">
              <mxPoint x="740" y="110" />
              <mxPoint x="740" y="330" />
            </Array>
          </mxGeometry>
        </mxCell>
        <mxCell id="h345J-r8i5o6uSTDHPps-10" value="Kafka" style="rounded=1;whiteSpace=wrap;html=1;fillColor=#ffe6cc;strokeColor=#d79b00;" vertex="1" parent="1">
          <mxGeometry x="550" y="80" width="120" height="60" as="geometry" />
        </mxCell>
        <mxCell id="h345J-r8i5o6uSTDHPps-11" value="ClickHouse" style="rounded=1;whiteSpace=wrap;html=1;fillColor=#ffe6cc;strokeColor=#d79b00;" vertex="1" parent="1">
          <mxGeometry x="550" y="200" width="120" height="60" as="geometry" />
        </mxCell>
        <mxCell id="h345J-r8i5o6uSTDHPps-12" value="Doris" style="rounded=1;whiteSpace=wrap;html=1;fillColor=#ffe6cc;strokeColor=#d79b00;" vertex="1" parent="1">
          <mxGeometry x="550" y="300" width="120" height="60" as="geometry" />
        </mxCell>
        <mxCell id="h345J-r8i5o6uSTDHPps-13" value="" style="shape=flexArrow;endArrow=classic;html=1;strokeWidth=2;fillColor=#ffe6cc;strokeColor=#d79b00;" edge="1" parent="1">
          <mxGeometry width="50" height="50" relative="1" as="geometry">
            <mxPoint x="450" y="190" as="sourcePoint" />
            <mxPoint x="550" y="100" as="targetPoint" />
          </mxGeometry>
        </mxCell>
        <mxCell id="h345J-r8i5o6uSTDHPps-16" value="" style="shape=flexArrow;endArrow=classic;html=1;strokeWidth=2;fillColor=#ffe6cc;strokeColor=#d79b00;exitX=0.922;exitY=1.067;exitDx=0;exitDy=0;exitPerimeter=0;" edge="1" parent="1" source="h345J-r8i5o6uSTDHPps-6">
          <mxGeometry width="50" height="50" relative="1" as="geometry">
            <mxPoint x="460" y="200" as="sourcePoint" />
            <mxPoint x="540" y="330" as="targetPoint" />
          </mxGeometry>
        </mxCell>
        <mxCell id="h345J-r8i5o6uSTDHPps-18" value="写" style="text;html=1;align=center;verticalAlign=middle;resizable=0;points=[];autosize=1;strokeColor=none;" vertex="1" parent="1">
          <mxGeometry x="500" y="270" width="30" height="20" as="geometry" />
        </mxCell>
        <mxCell id="h345J-r8i5o6uSTDHPps-19" value="写" style="text;html=1;align=center;verticalAlign=middle;resizable=0;points=[];autosize=1;strokeColor=none;" vertex="1" parent="1">
          <mxGeometry x="490" y="200" width="30" height="20" as="geometry" />
        </mxCell>
        <mxCell id="h345J-r8i5o6uSTDHPps-21" value="写" style="text;html=1;align=center;verticalAlign=middle;resizable=0;points=[];autosize=1;strokeColor=none;" vertex="1" parent="1">
          <mxGeometry x="460" y="130" width="30" height="20" as="geometry" />
        </mxCell>
        <mxCell id="h345J-r8i5o6uSTDHPps-23" value="写" style="text;html=1;align=center;verticalAlign=middle;resizable=0;points=[];autosize=1;strokeColor=none;" vertex="1" parent="1">
          <mxGeometry x="750" y="210" width="30" height="20" as="geometry" />
        </mxCell>
        <mxCell id="h345J-r8i5o6uSTDHPps-24" value="" style="shape=flexArrow;endArrow=classic;html=1;strokeWidth=1;fillColor=#ffe6cc;strokeColor=#d79b00;" edge="1" parent="1">
          <mxGeometry width="50" height="50" relative="1" as="geometry">
            <mxPoint x="30" y="100" as="sourcePoint" />
            <mxPoint x="109.5" y="100" as="targetPoint" />
          </mxGeometry>
        </mxCell>
        <mxCell id="h345J-r8i5o6uSTDHPps-25" value="用户请求" style="text;html=1;align=center;verticalAlign=middle;resizable=0;points=[];autosize=1;strokeColor=none;" vertex="1" parent="1">
          <mxGeometry x="30" y="60" width="60" height="20" as="geometry" />
        </mxCell>
      </root>
    </mxGraphModel>
  </diagram>
</mxfile>
